<svg xmlns="http://www.w3.org/2000/svg" viewBox="0 0 29.85 29.85"><defs><style>.cls-1,.cls-2{fill:none;stroke:#000;stroke-linejoin:round;stroke-width:0.85px;}.cls-2{stroke-linecap:round;}</style></defs><g id="Layer_2" data-name="Layer 2"><g id="design"><polyline class="cls-1" points="12.58 3.42 12.58 12.6 0.42 12.6 0.42 0.42 12.93 0.42"/><polyline class="cls-1" points="17.27 3.42 17.27 12.6 29.43 12.6 29.43 0.42 16.93 0.42"/><polyline class="cls-1" points="12.58 26.43 12.58 17.25 0.42 17.25 0.42 29.43 12.93 29.43"/><polyline class="cls-1" points="17.27 26.43 17.27 17.25 29.43 17.25 29.43 29.43 16.93 29.43"/><circle class="cls-2" cx="6.5" cy="23.43" r="1.4"/><line class="cls-2" x1="8.93" y1="6.42" x2="21.95" y2="6.42"/><line class="cls-2" x1="8.37" y1="23.34" x2="21.95" y2="23.34"/><line class="cls-2" x1="23.35" y1="21.92" x2="23.35" y2="7.9"/><circle class="cls-2" cx="23.35" cy="6.5" r="1.4"/><circle class="cls-2" cx="23.35" cy="23.33" r="1.4"/><polygon class="cls-2" points="8.93 9.13 4.25 6.42 8.93 3.73 8.93 9.13"/></g></g></svg>